<?xml version="1.0" encoding="iso-8859-1"?>
<!-- Generator: Adobe Illustrator 19.0.0, SVG Export Plug-In . SVG Version: 6.00 Build 0)  -->
<svg version="1.1" id="Capa_1" xmlns="http://www.w3.org/2000/svg" xmlns:xlink="http://www.w3.org/1999/xlink" x="0px" y="0px"
	 viewBox="0 0 512 512" style="enable-background:new 0 0 512 512;" xml:space="preserve">
<g>
	<g>
		<path d="M501.905,10.593C489.743-1.57,468.721-2.766,441.099,7.133c-18.995,6.81-38.919,18.222-48.451,27.754l-76.55,76.55
			L64.116,71.859L0,135.975l209.501,82.059l-67.266,67.266l-95.472,5.591L0.984,336.67l103.609,49.994L75.567,415.69l21.24,21.24
			l28.987-28.987l50.043,103.56l45.768-45.769l5.592-95.472l68.395-68.395l82.043,209.459l64.115-64.116l-39.57-251.933
			l75.43-75.431c9.532-9.531,20.945-29.455,27.755-48.451C515.264,43.781,514.068,22.754,501.905,10.593z M53.706,124.751
			l20.846-20.846l215.268,33.811l-57.136,57.136L53.706,124.751z M409.705,436.776l-20.845,20.846l-70.087-178.935l57.128-57.128
			L409.705,436.776z M477.088,61.262c-5.739,16.012-15.224,31.853-20.718,37.347L197.88,357.101l-5.592,95.472l-7.797,7.797
			l-36.202-74.918l26.113-26.113l-21.24-21.24l-26.07,26.068L52.137,328l7.788-7.788l95.472-5.591L413.888,56.128
			c5.495-5.495,21.336-14.977,37.348-20.718c18.176-6.516,27.82-5.186,29.429-3.577C482.272,33.441,483.604,43.083,477.088,61.262z"
			/>
	</g>
</g>
<g>
</g>
<g>
</g>
<g>
</g>
<g>
</g>
<g>
</g>
<g>
</g>
<g>
</g>
<g>
</g>
<g>
</g>
<g>
</g>
<g>
</g>
<g>
</g>
<g>
</g>
<g>
</g>
<g>
</g>
</svg>
